<svg xmlns="http://www.w3.org/2000/svg" viewBox="0 0 820.78 371.37"><defs><style>.cls-1{fill:#a7d8bb;}.cls-2{fill:#a9975b;}</style></defs><title>Logo</title><g id="Layer_2" data-name="Layer 2"><g id="Layer_1-2" data-name="Layer 1"><g id="Logo"><path class="cls-1" d="M520.9,143.8c.72,7.41,17.08,13.38,38.06,13.89,1,0,2,0,2.92,0,15.54,0,29.59-3,36.35-8,2.62-1.91,4-4,4-6.18,0-2-1-3.93-3.22-5.75a1,1,0,0,0-.56-.22,1.06,1.06,0,0,0-.87.3.59.59,0,0,0,0,.78,4.68,4.68,0,0,1,1,2.88c0,1.71-1.11,3.36-3.21,4.9C589.18,151,575,153.92,560,153.64c-18.62-.33-33.65-5.45-34.2-11.64-.27-3,2.59-5.82,8.62-8.14.19-.08.49-.32.44-.61a.54.54,0,0,0-.35-.4,3.31,3.31,0,0,0-1.75.32C524.86,136,520.52,139.82,520.9,143.8Z"/><path class="cls-1" d="M505.26,145a18.92,18.92,0,0,1,3.39-3.26,1.33,1.33,0,0,1,1.46-.14.66.66,0,0,1,.16,1,7.89,7.89,0,0,0-1.83,6.65c1.87,8.56,19.8,15.86,43.62,17.65,16.2,1.24,32,0,44.5-3.49,12-3.35,19.34-8.46,20.27-14,.4-2.41-.42-4.78-2.42-7a.68.68,0,0,1-.06-.87,1.14,1.14,0,0,1,1-.44h.16a1.11,1.11,0,0,1,.65.2c5.26,3.57,6.65,6.74,6.12,10.71-1.63,12.16-30.32,21.65-62.82,21-3.24-.06-6.52-.22-9.82-.48-13.13-1-22.7-3.54-31.48-7.26s-13.88-8.24-14.82-13.1a8.33,8.33,0,0,1,2-7.22"/><path class="cls-2" d="M558.63,140.22a7.69,7.69,0,0,1-4.3-4.95c-.86-2.92-.65-16.48-.66-16.67-.28-3.56-.49-5.2-5.15-9.66-4.38-4.2-4.46-7.54-4.7-9.3A39.49,39.49,0,0,1,545.05,88c.55-2.61,1.68-9.46.14-14.37-2.51-8-7.2-12.42-11-16-8.11-11.76-4.33-20.47-3.16-23.37a2.93,2.93,0,0,0,.33-1.07.86.86,0,0,0-.5-.88c-.56-.22-1.19.28-1.38.44A19.25,19.25,0,0,0,524,49a86,86,0,0,1-7.75-9.11c-11.5-16.27-11.39-29.24-9.09-37.81.27-1,.05-1.59-.56-1.86a1.29,1.29,0,0,0-1.82.41c-2.48,5-7.27,15.78-1.41,31.2-5.74-3.13-9.55-9.29-10-9.79s-1.41-.83-1.58.23a5.57,5.57,0,0,0,.44,2.48c3.9,10.7,14.28,18,19.05,20.92,15.1,15.94,28.23,17.84,29.35,30.89-3.81-6.6-9.38-9.91-18.73-9.57a6.29,6.29,0,0,1-3-.75.67.67,0,0,0-.9.52A9.21,9.21,0,0,0,520,74.83c6.65,8.2,14.16,5.63,16.24,5.13h0c1.79-.81,4,.41,4.91,4.41.51,2.3-.46,8.53-.58,9.56s-2.45,10.62,5.25,17.81c4.43,5.08,4,9.9,4.15,17,.11,4.68,1.4,9.43,4.87,12.37,3.67,3.12,4.46,1.83,4.56,1.75a2,2,0,0,0,.53-1.23C560,141.3,560,140.9,558.63,140.22Z"/><path class="cls-2" d="M629.57,20c-.13-1-1-.8-1.5-.26S620.84,29.22,617,30.65a30.88,30.88,0,0,0,3.49-9.06c2-9-.59-15.67-2.86-20.62a1.53,1.53,0,0,0-2-.72c-.58.28-.62,1-.66,1.56,2,8.46,1.47,20.08-9.88,35.82l-6.72,8a19.4,19.4,0,0,0-5.4-14.75c-.16-.15-.75-.62-1.26-.37a.88.88,0,0,0-.44.89,3.42,3.42,0,0,0,.32,1,25.44,25.44,0,0,1-3,23.52c-6.09,6.94-12.12,9.28-8,32.13,0,0,2.14,11.17-3.84,18.49-4.4,4.78-5.62,7.79-5.85,12.21,0,.73,0,4.55.15,6.94.34,5.06.19,7-.92,9.73-2.84,6.5-8.37,5.92-7.18,8.87.86,1.9,4.28.43,6.65-1,6.24-4,6.9-9.72,7.14-20.15,0-2,.59-6.55,4.68-11.7,7.69-9.66,6.54-20.42,5.07-28.33-.22-4.27,1.54-3.7,1.55-3.7,1.87.31,4.7.94,7.35.32,9.7-2.25,9.74-12.73,9.28-14.57a.59.59,0,0,0-.86-.41,7,7,0,0,1-3.45,1.2c-11.2.47-14,9-14.93,11.54C584.4,61.8,594.17,59,611.59,42c5.09-3.24,13.9-10,17.52-19.58A5.61,5.61,0,0,0,629.57,20Z"/><path class="cls-2" d="M102.26,335.17a22.07,22.07,0,0,1,9.86,2.47l.14-.08V316.79h4.15V370.6h-4.15v-3.24l-.14-.07A16.66,16.66,0,0,1,101,371.37c-9.23,0-16.55-6.83-16.55-17.47C84.44,343.69,91.27,335.17,102.26,335.17Zm-.64,32.47a14.85,14.85,0,0,0,10.64-4.37V341.72a19.71,19.71,0,0,0-9.86-2.82c-8.59,0-13.81,6.55-13.81,14.72S93.67,367.64,101.62,367.64Z"/><path class="cls-2" d="M140.22,354.4c.7,8.17,6.55,13.24,14.72,13.24a19.26,19.26,0,0,0,11.62-4v4.51a23.49,23.49,0,0,1-11.91,3.24c-10.63,0-18.52-7.32-18.52-18.1s7.75-18.1,17.12-18.1c8.38,0,15.35,6,15.35,16.27,0,1.06-.07,2.11-.14,3Zm.14-3.45h24.16c-.22-9.3-6.77-12.05-11.42-12.05C147.33,338.9,141.48,342.92,140.36,351Z"/><path class="cls-2" d="M188.53,335.94h4.15v4.86l.14.07c3.45-3.17,8-5.7,13.31-5.7a11.7,11.7,0,0,1,8.88,3.52c2.11,2.26,3.1,5.21,3.1,10.36V370.6H214V349.82c0-4.16-.63-6.62-2.18-8.31a8.55,8.55,0,0,0-6.48-2.47c-4.72,0-9.23,2.61-12.61,6.2V370.6h-4.15Z"/><path class="cls-2" d="M242.68,358.76V339.61h-6.9v-3.67h6.9v-9.71l4.16-.71v10.42H258v3.67h-11.2v18.45c0,5.21.77,9.51,6.27,9.51A10,10,0,0,0,258,366.3v3.95a13.63,13.63,0,0,1-5.5,1.12,9.58,9.58,0,0,1-7.39-3C243.39,366.37,242.68,363.27,242.68,358.76Z"/><path class="cls-2" d="M277.47,369a9,9,0,0,1-3.59-7.47,9.14,9.14,0,0,1,4.37-8c2.6-1.69,6.13-2.32,9.51-2.32a33.63,33.63,0,0,1,8.94,1.27v-4c0-3.38-.63-5.56-2.53-7.25-1.62-1.41-4-2.19-7.12-2.19a18.22,18.22,0,0,0-10.63,3.38V338.2a21.08,21.08,0,0,1,11.05-3.1c4.16,0,7.54,1.06,9.87,3s3.52,5.07,3.52,9.3v15c0,2.95.7,5.14,3.52,5.14a4.55,4.55,0,0,0,2.25-.57v3.6a7.52,7.52,0,0,1-3,.56,6.24,6.24,0,0,1-6.26-4.08h-.15a18.22,18.22,0,0,1-11.55,4.29A13.64,13.64,0,0,1,277.47,369Zm19.23-5.43v-7.81a31.82,31.82,0,0,0-8.59-1.27c-4.93,0-10,1.55-10,6.69,0,4.51,3.87,6.48,8.1,6.48A16.33,16.33,0,0,0,296.7,363.55Z"/><path class="cls-2" d="M323.67,316.79h4.16V370.6h-4.16Z"/><path class="cls-2" d="M377.55,335.94H382l6.13,17.54c1.27,3.66,2.68,7.75,3.94,11.55h.15c1.26-3.66,2.74-7.81,4-11.34l6.41-17.75h2.89l6.27,17.33c1.33,3.66,2.88,8,4.15,11.69h.14c1.2-3.66,2.68-8,3.88-11.41l6.12-17.61h4.3L418.19,370.6H414l-6.13-16.91c-1-2.95-2.74-7.74-3.8-10.84H404c-1.06,3.1-2.75,7.89-3.88,11L394,370.6h-4.3Z"/><path class="cls-2" d="M448.53,354.4c.71,8.17,6.55,13.24,14.72,13.24a19.27,19.27,0,0,0,11.63-4v4.51A23.49,23.49,0,0,1,463,371.37c-10.63,0-18.52-7.32-18.52-18.1s7.75-18.1,17.11-18.1c8.39,0,15.36,6,15.36,16.27,0,1.06-.07,2.11-.14,3Zm.14-3.45h24.16c-.21-9.3-6.76-12.05-11.41-12.05C455.65,338.9,449.8,342.92,448.67,351Z"/><path class="cls-2" d="M496.85,316.79H501V370.6h-4.15Z"/><path class="cls-2" d="M523.25,316.79h4.16V370.6h-4.16Z"/><path class="cls-2" d="M549.66,335.94h4.16v4.86l.14.07c3.45-3.17,8-5.7,13.31-5.7a11.72,11.72,0,0,1,8.88,3.52c2.11,2.26,3.1,5.21,3.1,10.36V370.6h-4.16V349.82c0-4.16-.63-6.62-2.18-8.31a8.56,8.56,0,0,0-6.48-2.47c-4.72,0-9.23,2.61-12.61,6.2V370.6h-4.16Z"/><path class="cls-2" d="M602.9,354.4c.71,8.17,6.55,13.24,14.72,13.24a19.22,19.22,0,0,0,11.62-4v4.51a23.43,23.43,0,0,1-11.9,3.24c-10.63,0-18.52-7.32-18.52-18.1s7.75-18.1,17.11-18.1c8.39,0,15.36,6,15.36,16.27,0,1.06-.07,2.11-.14,3ZM603,351H627.2c-.21-9.3-6.76-12.05-11.41-12.05C610,338.9,604.17,342.92,603,351Z"/><path class="cls-2" d="M649.24,363.91a24.89,24.89,0,0,0,13.1,3.66c5.85,0,9.58-2,9.58-6.2,0-5.21-5.77-5.78-11.2-6.62-5.77-.92-12.32-2.61-12.32-9.65,0-6.55,5.56-9.93,13.45-9.93a27.16,27.16,0,0,1,12.47,3v4.36A24.22,24.22,0,0,0,661.71,339c-5.42,0-9.16,1.9-9.16,5.85,0,4.86,5.64,5.35,10.85,6.2,6.27,1,12.68,2.67,12.68,10,0,6.83-5.57,10.35-14,10.35a27.31,27.31,0,0,1-12.89-3Z"/><path class="cls-2" d="M693.4,363.91a24.84,24.84,0,0,0,13.1,3.66c5.85,0,9.58-2,9.58-6.2,0-5.21-5.78-5.78-11.2-6.62-5.78-.92-12.33-2.61-12.33-9.65,0-6.55,5.57-9.93,13.46-9.93a27.15,27.15,0,0,1,12.46,3v4.36a24.18,24.18,0,0,0-12.6-3.52c-5.43,0-9.16,1.9-9.16,5.85,0,4.86,5.63,5.35,10.85,6.2,6.26,1,12.67,2.67,12.67,10,0,6.83-5.56,10.35-13.94,10.35a27.31,27.31,0,0,1-12.89-3Z"/><path class="cls-1" d="M43.86,164.43H0V291.09H43.86c38.86,0,69.1-27.26,69.1-63.24C113,191.69,82.72,164.43,43.86,164.43Zm-2.4,118.69h-26V172.41h26c30,0,54.88,21.51,54.88,55.44C96.34,261.61,71.5,283.12,41.46,283.12Z"/><path class="cls-1" d="M168,198.74c-25.84,0-48.07,20-48.07,46,0,27.26,22.63,47.85,50.67,47.85A53.73,53.73,0,0,0,208.1,277l-5-5c-4.41,3.71-14.22,12.61-31.25,12.61-17.22,0-36.45-12.79-36.25-40.61H213.3C213.3,218,195.88,198.74,168,198.74Zm-32.25,38.2C137.2,216.17,155,205.42,168,205.42c16.42,0,28,12.42,29.64,31.52Z"/><path class="cls-1" d="M268.58,198.74c-25.83,0-48.06,20-48.06,46,0,27.26,22.63,47.85,50.67,47.85A53.72,53.72,0,0,0,308.64,277l-5-5c-4.4,3.71-14.22,12.61-31.24,12.61-17.23,0-36.45-12.79-36.25-40.61h77.71C313.85,218,296.42,198.74,268.58,198.74Zm-32.24,38.2c1.4-20.77,19.23-31.52,32.24-31.52,16.43,0,28,12.42,29.65,31.52Z"/><path class="cls-1" d="M337.48,215.25v-15H322.66v90.87h14.82V236.2c0-16.32,11.62-29.3,33.25-26.89V198.74C355.91,198.74,343.09,206.34,337.48,215.25Z"/><polygon class="cls-1" points="512.53 200.22 486.69 269.21 453.85 195.96 422.2 269.21 393.16 200.22 377.54 200.22 417.8 296.1 450.64 224.7 483.49 296.1 523.75 200.22 512.53 200.22"/><path class="cls-1" d="M603.87,266.8l1-30.6c1-29.3-19.83-37.46-38.26-37.46-15.22,0-28.24,5.93-38.65,13.91l10.21,9.27c6.21-8.9,15.82-16.32,28.44-16.32,9.82,0,23.24,6.49,23.24,24.11-55.28,8.16-66.3,23.18-66.3,38.39,0,15,13,24.48,31.65,24.48,15.22,0,28.64-8.16,35.65-16.32,0,4.45.6,10.75,3.2,14.83h15.62A43.43,43.43,0,0,1,603.87,266.8Zm-14.42-11.68c0,19.28-15,28.74-29.25,28.74-13.62,0-21-6.49-21-17.06,0-11.31,7.21-23.74,50.68-30.6Z"/><path class="cls-1" d="M643.52,208.38l28.44.19v-8.35l-28.44.19V171.25a67.18,67.18,0,0,1-15,12.07v17.09l-20.43-.19v8.35l20.43-.19V266.8c0,10.94,1.2,17.25,4.21,24.29h16.62c-5-7.42-5.81-14.46-5.81-24.29Z"/><path class="cls-1" d="M716.63,198.74c-25.84,0-48.07,20-48.07,46,0,27.26,22.63,47.85,50.67,47.85A53.7,53.7,0,0,0,756.68,277l-5-5c-4.41,3.71-14.22,12.61-31.25,12.61-17.22,0-36.45-12.79-36.25-40.61h77.71C761.89,218,744.47,198.74,716.63,198.74Zm-32.25,38.2c1.4-20.77,19.23-31.52,32.25-31.52,16.42,0,28,12.42,29.64,31.52Z"/><path class="cls-1" d="M787.53,215.25v-15H772.71v90.87h14.82V236.2c0-16.32,11.62-29.3,33.25-26.89V198.74C806,198.74,793.14,206.34,787.53,215.25Z"/></g></g></g></svg>